<?xml version="1.0" standalone="no"?>
<!DOCTYPE svg PUBLIC "-//W3C//DTD SVG 20010904//EN"
 "http://www.w3.org/TR/2001/REC-SVG-20010904/DTD/svg10.dtd">
<svg version="1.0" xmlns="http://www.w3.org/2000/svg"
 width="16.000000pt" height="16.000000pt" viewBox="0 0 16.000000 16.000000"
 preserveAspectRatio="xMidYMid meet">
<metadata>
Created by potrace 1.11, written by Peter Selinger 2001-2013
</metadata>
<g transform="translate(0.000000,16.000000) scale(0.005161,-0.005161)"
fill="#000000" stroke="none">
<path d="M0 2956 l0 -144 60 5 c40 4 65 2 75 -7 24 -20 9 -28 -65 -36 l-70 -7
0 -988 0 -989 58 -2 c31 -1 69 -2 84 -1 28 1 28 0 28 -58 0 -40 4 -61 13 -65
15 -5 107 31 107 43 0 4 -29 59 -64 122 -65 119 -125 247 -146 314 -7 23 -13
135 -16 295 -3 141 -6 293 -7 337 -2 74 1 86 34 155 40 84 67 116 127 154 38
24 137 66 155 66 14 0 7 -28 -9 -34 -23 -9 -7 -25 19 -18 28 7 38 22 31 45 -8
25 21 22 38 -5 17 -27 64 -245 55 -255 -4 -3 -7 0 -7 8 0 31 -15 40 -48 28
-33 -11 -50 -44 -38 -75 8 -22 29 -12 36 17 4 17 8 20 14 11 4 -7 19 -17 32
-22 14 -6 24 -18 24 -30 0 -20 -8 -24 -41 -21 -11 1 -18 -9 -23 -36 -9 -58 -7
-73 9 -73 14 0 20 12 16 34 -4 21 11 45 25 39 11 -4 13 -14 9 -34 -4 -16 -2
-29 3 -29 20 0 31 27 25 62 -3 20 0 58 6 85 9 39 7 68 -7 151 -12 71 -15 105
-8 110 12 7 52 5 100 -4 19 -4 26 -3 22 5 -4 6 -16 11 -27 11 -12 0 -19 5 -17
13 3 7 28 13 69 15 35 1 74 7 86 14 25 12 24 13 163 -56 43 -22 98 -40 129
-44 l55 -7 2 -60 c2 -65 33 -156 90 -260 41 -76 57 -156 37 -185 -12 -18 -12
-22 1 -35 15 -15 12 -38 -6 -62 -5 -7 -5 -14 2 -18 13 -8 13 -45 1 -45 -6 0
-17 10 -25 22 -13 19 -20 20 -43 12 -37 -12 -42 -48 -12 -80 12 -13 20 -27 16
-30 -4 -4 -20 8 -37 26 -25 27 -36 31 -59 27 -19 -4 -33 -1 -41 8 -7 8 -19 15
-27 15 -12 0 -14 -8 -9 -35 9 -44 1 -45 -19 -1 -37 77 -96 45 -83 -44 5 -33
-7 -41 -15 -10 -6 23 -53 37 -76 23 -20 -12 -27 -69 -10 -89 6 -8 20 -14 30
-14 11 0 19 -5 19 -10 0 -8 -65 12 -77 24 -2 2 -5 27 -7 55 -3 44 -9 58 -34
81 l-30 27 -29 -29 c-24 -23 -34 -27 -60 -22 -31 6 -43 26 -48 77 -4 34 -15
30 -15 -6 0 -26 -4 -37 -15 -37 -12 0 -15 14 -15 64 0 36 -4 68 -10 71 -6 4
-10 -9 -10 -31 0 -31 -2 -35 -15 -24 -8 6 -24 37 -35 68 -38 102 -87 159 -143
166 -12 2 -35 8 -50 15 -22 8 -27 16 -22 31 8 24 5 24 -41 5 -20 -8 -40 -12
-45 -9 -5 3 -12 -3 -15 -13 -3 -10 -9 -27 -14 -38 -16 -40 -17 -51 -10 -144 6
-86 -2 -167 -25 -263 -5 -19 1 -43 19 -82 14 -30 26 -62 26 -71 0 -23 20 -58
41 -73 9 -6 21 -26 24 -43 5 -23 9 -28 16 -18 6 10 9 11 10 2 1 -7 2 -18 3
-23 2 -15 58 -47 97 -55 l34 -7 -38 26 c-21 14 -43 26 -50 27 -7 0 3 5 21 10
27 8 36 6 54 -11 13 -12 23 -26 24 -33 0 -7 2 -22 2 -35 2 -16 7 -22 20 -20
13 2 18 -6 22 -37 6 -46 48 -109 64 -96 6 5 26 12 44 16 18 3 36 15 42 25 5 9
18 20 29 23 16 4 21 -1 23 -22 2 -21 8 -26 31 -26 15 1 27 -5 27 -12 0 -17 36
-35 64 -31 13 1 30 -3 38 -10 21 -17 197 -31 296 -23 9 1 11 9 7 24 l-6 22 19
-24 c16 -20 27 -23 83 -23 35 1 91 6 123 12 45 9 61 9 66 0 5 -8 21 -10 48 -5
34 5 42 3 55 -16 16 -22 16 -22 48 -3 26 15 37 32 50 75 21 72 58 137 81 145
13 4 32 -7 63 -35 49 -45 77 -51 128 -25 49 25 98 75 92 95 -3 9 1 19 8 22 8
3 17 21 21 40 5 26 16 41 41 56 20 11 40 32 47 46 6 14 15 25 19 25 6 0 19 34
25 65 1 6 2 12 3 15 7 19 7 70 0 68 -4 -2 -18 -18 -31 -37 -32 -48 -56 -61
-69 -38 -6 9 -15 17 -22 17 -6 0 -36 15 -67 34 -30 19 -82 39 -115 46 -129 27
-255 84 -233 106 8 8 118 7 163 -2 40 -7 49 10 13 26 -39 16 -210 59 -268 66
-30 4 -63 13 -72 22 -20 17 -24 47 -8 57 14 9 200 -13 295 -34 120 -26 139
-12 53 37 -47 26 -110 43 -253 67 -49 8 -65 21 -65 50 0 33 42 37 182 21 91
-11 128 -20 167 -41 l50 -28 19 23 c17 21 17 25 1 74 -13 36 -36 71 -83 120
-64 66 -80 101 -52 112 17 6 69 -19 111 -54 l30 -25 3 139 c1 76 -1 171 -5
209 l-8 70 -223 -3 c-137 -2 -222 0 -222 6 0 5 55 11 125 14 80 3 130 9 140
18 11 10 15 34 15 106 0 51 5 105 10 120 8 19 8 30 0 38 -5 5 -10 23 -10 38 0
16 -12 47 -26 70 -30 46 -114 211 -114 222 0 4 -17 45 -37 92 l-36 84 -269 0
c-167 0 -268 -4 -268 -10 0 -17 59 -173 76 -197 21 -33 12 -50 -35 -64 -46
-14 -52 -24 -18 -35 12 -3 28 -11 35 -17 20 -16 -9 -25 -75 -26 -29 -1 -53 -4
-53 -8 0 -4 25 -31 56 -60 45 -43 62 -53 92 -54 78 -3 108 6 116 33 5 20 8 21
16 7 5 -9 23 -55 39 -103 l29 -87 -22 -10 c-15 -7 -38 -6 -76 4 -52 13 -55 15
-55 45 0 42 -17 41 -66 -3 -22 -19 -50 -35 -63 -35 -13 0 -29 -7 -36 -15 -11
-13 -9 -21 9 -46 26 -35 19 -52 -20 -47 -26 4 -33 -2 -31 -23 1 -4 -7 -9 -18
-12 -23 -6 -43 15 -70 75 -29 65 -35 149 -20 280 10 95 18 124 47 183 27 54
37 87 42 147 l7 78 -408 0 -408 0 0 -144z m1041 -506 c29 -16 23 -30 -14 -30
-40 0 -51 8 -36 27 14 16 24 16 50 3z m539 -34 c0 -18 -19 -33 -53 -41 -35 -9
-35 7 1 34 32 24 52 27 52 7z m-549 -17 c11 -5 43 -11 71 -13 56 -2 74 -20 36
-35 -36 -13 -112 -22 -123 -13 -13 9 -35 49 -35 62 0 13 26 13 51 -1z m-19
-79 c49 -51 63 -60 93 -60 28 0 35 -4 35 -19 0 -31 -22 -40 -98 -42 -78 -2
-86 2 -161 70 -25 23 -48 41 -53 41 -17 0 3 20 20 20 9 1 26 12 37 25 33 40
62 32 127 -35z m595 -142 c-3 -8 -6 -5 -6 6 -1 11 2 17 5 13 3 -3 4 -12 1 -19z
m-886 -854 c16 -14 16 -18 4 -31 -10 -9 -13 -24 -9 -39 6 -23 4 -25 -22 -18
-39 9 -39 10 -24 40 11 20 12 29 2 45 -11 17 -9 19 10 19 12 0 29 -7 39 -16z
m359 -65 c0 -11 -3 -11 -24 -3 -23 9 -20 23 4 17 11 -3 20 -9 20 -14z m691 1
c27 -15 24 -45 -6 -58 -45 -21 -55 -16 -55 28 0 34 3 40 21 40 11 0 29 -5 40
-10z m-1121 -30 c0 -5 -4 -10 -10 -10 -5 0 -10 5 -10 10 0 6 5 10 10 10 6 0
10 -4 10 -10z m495 -10 c-15 -16 -21 -18 -33 -8 -13 11 -11 14 9 19 40 11 43
10 24 -11z m717 -90 c-9 -11 -32 36 -31 64 0 29 1 29 18 -14 10 -25 16 -47 13
-50z m28 65 c7 -9 8 -15 2 -15 -5 0 -12 7 -16 15 -3 8 -4 15 -2 15 2 0 9 -7
16 -15z m-96 -57 c4 -23 11 -47 16 -53 14 -17 0 -55 -21 -55 -10 0 -21 -5 -24
-10 -4 -6 -23 -17 -42 -25 -43 -18 -55 -8 -46 40 10 57 73 145 104 145 4 0 9
-19 13 -42z m-1414 -37 c0 -9 -7 -3 -15 13 -19 36 -19 47 0 22 8 -11 15 -27
15 -35z m17 -63 c-3 -8 -6 -5 -6 6 -1 11 2 17 5 13 3 -3 4 -12 1 -19z m648
-23 c-21 -20 -39 -34 -40 -33 -1 2 -8 13 -14 26 -11 20 -10 22 18 22 16 0 33
5 36 10 3 6 14 10 23 10 11 0 3 -12 -23 -35z m164 29 c42 -9 39 -21 -6 -26
-50 -6 -67 0 -52 18 13 16 15 16 58 8z m-788 -78 c5 -6 9 -17 9 -25 0 -9 -7
-3 -15 13 -8 15 -14 38 -14 50 2 18 2 17 6 -4 3 -14 9 -29 14 -34z m209 34 c0
-5 -4 -10 -10 -10 -5 0 -10 5 -10 10 0 6 5 10 10 10 6 0 10 -4 10 -10z m260
-15 c-7 -8 -16 -12 -21 -9 -13 8 -1 24 18 24 13 0 13 -3 3 -15z m260 -29 c0
-3 -4 -8 -10 -11 -5 -3 -10 -1 -10 4 0 6 5 11 10 11 6 0 10 -2 10 -4z m-500
-30 c0 -3 -4 -8 -10 -11 -5 -3 -10 -1 -10 4 0 6 5 11 10 11 6 0 10 -2 10 -4z
m480 -10 c0 -3 -4 -8 -10 -11 -5 -3 -10 -1 -10 4 0 6 5 11 10 11 6 0 10 -2 10
-4z m-375 -107 c12 -18 -3 -22 -20 -5 -14 14 -14 16 -1 16 8 0 18 -5 21 -11z"/>
<path d="M733 2108 c2 -7 10 -13 17 -13 7 0 15 6 18 13 2 7 -5 12 -18 12 -13
0 -20 -5 -17 -12z"/>
<path d="M380 2033 c0 -4 9 -14 21 -21 15 -10 19 -20 15 -38 -7 -28 8 -31 39
-8 18 14 19 17 5 42 -11 19 -25 28 -48 30 -18 2 -32 0 -32 -5z"/>
<path d="M1706 1931 c-8 -12 21 -34 33 -27 6 4 8 13 4 21 -6 17 -29 20 -37 6z"/>
<path d="M1446 1674 c-21 -21 -20 -24 9 -24 18 0 25 5 25 20 0 24 -13 26 -34
4z"/>
<path d="M477 1636 c-8 -20 6 -69 22 -74 9 -3 11 8 9 39 -3 43 -21 63 -31 35z"/>
<path d="M696 1571 c-9 -10 -16 -25 -16 -33 0 -14 5 -15 30 -5 31 12 40 41 16
50 -8 3 -21 -2 -30 -12z"/>
<path d="M760 1585 c0 -11 44 -65 52 -65 12 0 9 45 -4 58 -12 12 -48 17 -48 7z"/>
<path d="M547 1565 c-10 -7 -17 -22 -15 -32 5 -25 76 -26 90 0 20 39 -36 63
-75 32z"/>
<path d="M885 1550 c3 -5 13 -10 21 -10 8 0 14 5 14 10 0 6 -9 10 -21 10 -11
0 -17 -4 -14 -10z"/>
<path d="M1395 1520 c3 -5 10 -10 16 -10 5 0 9 5 9 10 0 6 -7 10 -16 10 -8 0
-12 -4 -9 -10z"/>
<path d="M990 1507 c0 -9 10 -21 21 -28 17 -9 25 -8 37 5 19 19 15 24 -26 32
-25 5 -32 3 -32 -9z"/>
<path d="M1142 1493 c4 -22 38 -30 49 -12 11 19 2 29 -27 29 -19 0 -25 -5 -22
-17z"/>
<path d="M670 1471 c0 -21 -26 -36 -35 -21 -14 22 -35 9 -35 -20 0 -27 3 -30
34 -30 29 0 36 4 45 31 14 40 14 59 1 59 -5 0 -10 -9 -10 -19z"/>
<path d="M757 1483 c-14 -13 -6 -23 19 -23 22 0 25 2 14 15 -14 16 -23 19 -33
8z"/>
<path d="M867 1473 c-13 -12 -7 -23 12 -23 26 0 35 16 15 24 -19 7 -19 7 -27
-1z"/>
<path d="M924 1468 c-7 -11 38 -58 57 -58 19 0 8 27 -20 48 -21 15 -32 18 -37
10z"/>
<path d="M1066 1464 c-7 -18 -8 -64 -2 -64 22 0 56 23 56 38 0 36 -42 57 -54
26z"/>
<path d="M717 1444 c-14 -14 -7 -35 11 -32 9 2 17 10 17 17 0 16 -18 25 -28
15z"/>
<path d="M850 1395 c0 -17 5 -25 13 -22 6 2 12 12 12 22 0 10 -6 20 -12 23 -8
2 -13 -6 -13 -23z"/>
<path d="M780 1398 c0 -16 19 -38 33 -38 4 0 7 10 5 22 -3 25 -38 39 -38 16z"/>
<path d="M1212 648 c-17 -17 -15 -63 4 -79 14 -11 19 -10 36 11 24 30 21 74
-7 78 -11 1 -26 -3 -33 -10z"/>
<path d="M686 580 c49 -37 74 -39 74 -5 0 29 -24 43 -44 25 -11 -8 -20 -8 -35
-1 -37 20 -35 11 5 -19z"/>
<path d="M1515 459 c-133 -71 -164 -77 -410 -72 -268 4 -339 12 -343 36 -2 10
4 24 14 31 26 19 11 46 -26 46 -32 0 -37 -9 -18 -28 6 -6 10 -14 7 -16 -8 -9
-83 -10 -101 -2 -13 6 -18 4 -18 -9 0 -18 -9 -18 -97 1 -29 6 -33 4 -33 -15 0
-12 -6 -30 -12 -41 -10 -16 -10 -24 0 -40 14 -23 16 -111 3 -126 -5 -5 -11
-32 -14 -61 -6 -50 -5 -51 19 -49 25 3 46 16 26 16 -7 0 -12 5 -12 10 0 6 15
10 33 10 25 0 29 3 17 11 -11 8 -12 12 -2 16 6 2 12 11 12 19 0 8 7 14 15 14
9 0 15 7 13 16 -5 30 16 24 62 -16 24 -22 52 -40 62 -40 23 0 34 -20 17 -31
-13 -9 -50 -6 -106 8 -17 4 -25 -1 -32 -18 -6 -16 -5 -25 3 -28 6 -2 16 -10
21 -17 11 -14 90 -19 145 -9 23 4 48 1 73 -9 20 -9 37 -17 37 -19 0 -1 -21 0
-46 2 -25 2 -56 -2 -68 -7 -11 -6 -32 -12 -45 -14 -14 -2 -26 -9 -29 -15 -3
-10 104 -13 512 -13 284 0 516 3 516 7 0 3 -7 29 -15 57 -7 28 -24 123 -35
211 -21 158 -38 236 -49 234 -3 0 -47 -23 -96 -50z m-337 -96 c-10 -2 -28 -2
-40 0 -13 2 -5 4 17 4 22 1 32 -1 23 -4z m59 1 c-3 -3 -12 -4 -19 -1 -8 3 -5
6 6 6 11 1 17 -2 13 -5z m-467 -36 c18 -11 -38 -5 -90 11 -31 9 -29 10 20 4
30 -3 62 -9 70 -15z m-59 -24 c7 -4 4 -13 -7 -25 -12 -14 -21 -16 -35 -9 -10
6 -29 10 -43 10 -20 0 -26 5 -26 21 0 20 4 21 50 16 28 -3 55 -9 61 -13z m122
9 c-7 -2 -19 -2 -25 0 -7 3 -2 5 12 5 14 0 19 -2 13 -5z m327 -153 c0 -5 -2
-10 -4 -10 -3 0 -8 5 -11 10 -3 6 -1 10 4 10 6 0 11 -4 11 -10z m-353 -26 c-3
-3 -12 -4 -19 -1 -8 3 -5 6 6 6 11 1 17 -2 13 -5z"/>
<path d="M420 461 c0 -10 36 -21 44 -14 3 3 3 10 0 14 -7 12 -44 12 -44 0z"/>
<path d="M470 78 c-32 -12 -23 -18 28 -18 26 0 57 -1 69 -3 12 -1 22 3 23 8 1
13 -93 23 -120 13z"/>
</g>
</svg>
