<?xml version="1.0" standalone="no"?>
<!DOCTYPE svg PUBLIC "-//W3C//DTD SVG 20010904//EN"
 "http://www.w3.org/TR/2001/REC-SVG-20010904/DTD/svg10.dtd">
<svg version="1.0" xmlns="http://www.w3.org/2000/svg"
 width="16.000000pt" height="16.000000pt" viewBox="0 0 16.000000 16.000000"
 preserveAspectRatio="xMidYMid meet">
<metadata>
Created by potrace 1.11, written by Peter Selinger 2001-2013
</metadata>
<g transform="translate(0.000000,16.000000) scale(0.005161,-0.005161)"
fill="#000000" stroke="none">
<path d="M0 2954 l0 -147 56 6 c62 6 84 1 84 -19 0 -9 -19 -14 -67 -16 l-68
-3 -3 -997 -2 -998 57 -2 c32 -1 68 -2 81 -2 19 0 22 -5 22 -42 0 -54 8 -74
29 -74 29 0 111 34 111 46 0 6 -12 32 -26 58 -33 58 -14 62 37 6 24 -27 45
-40 62 -40 14 0 38 -5 53 -10 22 -9 31 -7 49 10 12 11 30 20 42 20 11 0 28 9
38 20 23 26 51 26 58 0 3 -11 13 -23 24 -26 10 -4 25 -13 33 -19 36 -31 168
-55 294 -55 l124 0 31 -31 c31 -30 35 -39 32 -69 -1 -9 9 -26 23 -39 32 -30
80 -26 84 7 2 13 16 29 34 38 30 15 31 15 57 -17 43 -51 22 -88 -65 -113 -16
-5 -23 0 -32 19 -12 26 -32 26 -32 1 0 -18 -88 -57 -130 -58 -48 -1 -110 8
-141 20 -15 6 -29 8 -32 5 -10 -10 -107 42 -107 58 0 8 -7 24 -15 35 -8 10
-15 32 -15 47 0 39 -15 64 -50 82 -31 16 -40 9 -18 -13 10 -9 9 -16 -4 -28
-15 -16 -21 -14 -73 15 -90 51 -74 29 29 -40 l95 -64 -26 -14 c-20 -10 -31
-11 -45 -2 -22 14 -28 14 -28 1 0 -5 5 -10 11 -10 6 0 22 -9 35 -19 20 -16 21
-20 8 -25 -22 -8 -51 -7 -72 3 -74 36 -93 43 -98 38 -4 -3 11 -16 31 -29 54
-31 28 -34 -75 -7 -49 13 -92 20 -96 16 -14 -13 19 -37 52 -37 33 0 45 -16 27
-34 -5 -4 -9 -42 -9 -84 -1 -43 -6 -106 -13 -142 -6 -36 -14 -91 -17 -122 l-7
-58 637 0 c711 0 649 -7 626 70 -6 19 -13 60 -16 90 -2 30 -9 75 -14 100 -5
25 -12 68 -15 95 -8 70 -25 156 -36 180 -29 67 -37 250 -13 301 21 43 59 56
80 26 8 -11 30 -30 49 -42 29 -18 39 -20 73 -11 68 19 191 146 208 216 4 17
12 37 19 45 51 60 81 175 51 199 -13 11 -16 9 -22 -13 -3 -14 -12 -30 -19 -36
-11 -9 -12 -7 -8 11 5 18 3 20 -16 14 -18 -6 -21 -3 -21 25 0 23 -5 33 -20 37
-12 3 -20 14 -20 25 0 17 2 18 15 8 19 -16 34 -5 17 12 -7 7 -12 21 -12 32 0
10 -3 16 -7 13 -3 -4 -13 -1 -21 5 -12 10 -17 9 -30 -10 -8 -13 -25 -22 -39
-22 -17 0 -30 -10 -45 -36 -21 -35 -21 -35 -72 -29 -77 10 -186 45 -186 60 0
20 17 23 113 17 48 -3 87 -2 87 1 0 15 -35 36 -82 50 -84 24 -244 57 -277 57
-17 0 -31 4 -31 9 0 5 9 7 20 4 14 -4 21 1 26 22 6 24 10 26 43 21 20 -3 65
-8 101 -11 36 -4 88 -14 116 -22 77 -24 160 -1 103 28 -8 4 -32 18 -54 31 -22
13 -50 24 -62 25 -12 1 -48 7 -80 14 -32 6 -83 15 -113 19 -30 4 -45 8 -32 9
17 1 24 9 29 31 3 17 8 30 12 30 105 -5 207 -23 255 -47 53 -26 56 -26 75 -9
11 10 25 15 30 11 18 -11 24 23 10 58 -7 17 -26 46 -41 62 -15 17 -30 37 -33
45 -3 8 -21 26 -40 39 -77 52 -87 68 -59 92 13 11 14 9 9 -13 -5 -20 -2 -29
13 -37 28 -15 32 -14 32 9 0 26 5 25 44 -5 18 -14 38 -25 44 -25 9 0 10 53 6
198 -3 108 -7 203 -9 210 -3 8 -31 12 -94 12 -81 0 -117 9 -92 24 4 3 12 55
16 116 4 72 11 115 21 124 11 12 11 16 -1 26 -8 7 -15 24 -15 39 0 15 -7 36
-14 47 -21 30 -112 214 -121 244 -4 14 -23 60 -42 103 l-36 77 -729 0 -728 0
0 -146z m890 39 c0 15 5 27 10 27 6 0 10 -13 10 -30 0 -16 -5 -30 -11 -30 -6
0 -9 -12 -7 -27 2 -20 9 -29 24 -31 17 -2 44 -37 44 -57 0 -3 -20 -10 -45 -16
-45 -11 -95 -56 -95 -84 0 -7 11 -20 24 -28 13 -9 36 -37 51 -64 16 -26 34
-51 41 -55 18 -11 5 -48 -17 -48 -10 0 -21 5 -24 11 -4 6 -14 8 -22 5 -9 -4
-17 1 -20 12 -3 11 -15 19 -34 20 -25 2 -29 -1 -29 -24 0 -23 -2 -25 -16 -14
-8 8 -22 29 -30 49 -14 34 -12 78 12 206 2 11 21 48 44 82 23 36 40 74 40 91
0 43 12 47 32 10 l17 -33 1 28z m252 -470 c26 -23 22 -33 -12 -33 -22 0 -30 5
-30 18 0 34 15 40 42 15z m-72 -24 c0 -6 -4 -7 -10 -4 -5 3 -10 11 -10 16 0 6
5 7 10 4 6 -3 10 -11 10 -16z m495 -99 c-10 -11 -27 -20 -38 -20 -19 0 -20 1
-2 20 10 11 27 20 38 20 19 0 20 -1 2 -20z m-505 -16 c43 -9 50 -11 74 -12 30
-3 14 -11 -32 -17 -46 -5 -112 15 -112 35 0 6 8 9 18 6 9 -2 33 -8 52 -12z
m-32 -128 l33 -24 -37 -7 c-42 -7 -69 10 -58 38 8 23 24 21 62 -7z m-654 -127
c-3 -5 -10 -7 -15 -4 -5 4 -9 -4 -9 -16 0 -17 4 -20 23 -15 12 3 28 6 35 6 6
0 12 12 12 28 l0 27 25 -29 c16 -19 25 -41 25 -63 0 -32 -12 -44 -25 -23 -3 5
-22 9 -41 8 -29 -1 -34 -5 -32 -22 2 -12 10 -21 18 -21 10 0 15 -9 14 -25 -2
-34 15 -42 48 -22 15 9 30 13 34 9 10 -10 -26 -47 -46 -47 -20 0 -45 -52 -36
-75 6 -18 43 -20 48 -3 3 7 14 9 32 4 34 -8 33 -42 -2 -39 -23 3 -24 -1 -37
-80 -5 -29 -2 -39 10 -43 20 -8 26 -2 35 38 8 31 8 32 9 6 1 -31 29 -39 49
-15 23 28 12 327 -14 369 -13 21 14 24 113 9 72 -11 138 -14 198 -10 73 5 99
2 138 -13 26 -10 58 -18 70 -18 37 0 48 -15 52 -71 6 -72 18 -103 86 -243 61
-123 70 -166 43 -193 -14 -15 -14 -17 0 -25 20 -11 21 -42 1 -58 -14 -12 -14
-15 1 -31 25 -28 8 -36 -20 -10 -19 18 -28 20 -49 12 -15 -6 -29 -21 -32 -34
-5 -20 -13 -24 -51 -25 -27 -2 -44 2 -44 9 0 7 -12 9 -33 5 -41 -8 -54 2 -27
21 27 19 25 25 -11 52 -40 30 -96 35 -109 11 -6 -10 -7 -25 -4 -33 3 -8 1 -18
-5 -22 -15 -8 -14 -42 1 -51 18 -12 39 25 27 48 -12 22 -12 23 17 32 14 4 27
0 39 -14 18 -20 18 -21 -2 -26 -20 -6 -43 -42 -43 -68 0 -10 -12 -12 -45 -8
-42 4 -45 3 -57 -24 l-12 -29 -4 30 c-2 17 -16 43 -30 58 -27 28 -27 29 -7 43
11 8 19 22 17 30 -2 9 6 14 23 14 20 0 26 4 23 17 -6 31 -38 27 -69 -8 -16
-18 -29 -36 -29 -41 0 -5 -10 -22 -22 -38 -17 -23 -30 -30 -55 -30 -19 0 -36
6 -38 13 -2 6 -9 31 -15 55 -12 47 -36 48 -26 1 4 -19 1 -29 -7 -29 -8 0 -12
21 -13 63 l-2 62 49 -2 c45 -2 49 0 55 23 14 56 -50 64 -101 13 -19 -19 -35
-42 -35 -52 0 -34 -18 -7 -41 61 -12 37 -28 74 -36 83 -7 9 -20 49 -29 90 -8
40 -16 74 -17 75 -1 1 -37 11 -79 22 -120 31 -158 17 -196 -70 -9 -21 -20 -38
-24 -38 -5 0 -8 31 -8 68 0 57 6 79 36 142 19 41 47 88 62 103 33 35 142 97
170 97 11 0 24 5 27 10 4 6 11 8 16 4 5 -3 7 -10 3 -15z m1066 -436 c0 -5 -4
-15 -10 -23 -11 -18 -25 -7 -17 15 6 15 27 21 27 8z m-15 -143 c9 -14 -37 -31
-50 -19 -6 7 -5 13 5 19 20 13 37 12 45 0z m-717 -219 c9 -5 11 -17 6 -37 -5
-16 -7 -34 -6 -40 1 -7 -8 -9 -23 -6 -24 4 -25 6 -11 27 8 12 12 32 9 44 -6
22 3 26 25 12z m1134 -146 c3 -13 1 -22 -3 -19 -9 5 -13 44 -5 44 2 0 6 -11 8
-25z m-54 -52 c2 -20 7 -42 13 -49 5 -6 7 -19 3 -27 -5 -15 -7 -15 -22 0 -11
10 -17 12 -20 4 -3 -10 -53 -41 -67 -41 -9 0 -5 40 6 63 21 40 60 87 72 87 8
0 14 -15 15 -37z m-598 -103 c0 -5 -4 -10 -10 -10 -5 0 -10 5 -10 10 0 6 5 10
10 10 6 0 10 -4 10 -10z m-165 -20 c-3 -5 -10 -10 -16 -10 -5 0 -9 5 -9 10 0
6 7 10 16 10 8 0 12 -4 9 -10z m-324 -719 c-8 -5 -20 -7 -28 -4 -21 8 -15 13
15 13 20 0 23 -3 13 -9z"/>
<path d="M470 1640 c-15 -28 7 -90 32 -90 13 0 18 7 17 28 -2 68 -28 101 -49
62z"/>
<path d="M760 1590 c0 -6 -14 -9 -32 -8 -38 3 -58 -25 -58 -85 0 -41 -20 -58
-45 -37 -12 10 -17 7 -26 -13 -17 -37 -6 -55 34 -55 31 0 36 4 50 38 8 21 12
50 10 64 -4 21 0 28 20 35 14 6 30 17 35 26 8 15 11 14 29 -9 29 -36 58 -35
48 1 -4 16 -11 34 -17 40 -12 15 -48 17 -48 3z"/>
<path d="M872 1558 c5 -15 58 -24 58 -10 0 5 -10 12 -22 16 -34 9 -40 7 -36
-6z"/>
<path d="M990 1511 c0 -26 26 -44 51 -38 20 5 21 3 15 -34 -6 -38 -5 -39 23
-39 40 0 57 23 43 55 -7 14 -23 30 -36 35 -13 5 -25 13 -27 18 -2 5 -19 12
-36 15 -28 5 -33 4 -33 -12z"/>
<path d="M1130 1508 c0 -8 6 -22 13 -32 11 -15 17 -17 35 -7 24 13 30 41 10
41 -7 0 -23 3 -35 6 -16 4 -23 2 -23 -8z"/>
<path d="M782 1393 c2 -20 9 -29 26 -31 27 -4 29 18 4 41 -26 24 -34 21 -30
-10z"/>
</g>
</svg>
